<?xml version="1.0" encoding="utf-8"?>
<!-- Generator: Adobe Illustrator 25.4.1, SVG Export Plug-In . SVG Version: 6.00 Build 0)  -->
<svg version="1.1" id="Layer_1" xmlns="http://www.w3.org/2000/svg" xmlns:xlink="http://www.w3.org/1999/xlink" x="0px" y="0px"
	 width="575px" height="321.6px" viewBox="0 0 575 321.6" style="enable-background:new 0 0 575 321.6;" xml:space="preserve">
<style type="text/css">
	.st0{fill:#FFFFFF;}
</style>
<path class="st0" d="M142.3,71.4l20.8,47.5c2.3,5.2,5.4,1.7,5.4,1.7c3.3-1.9,4.5-0.9,4.5-0.9c2.1,1.5,0.2,3.7,0.2,3.7l-8,15.6
	c-2.2,5.9-8.1,0.6-8.1,0.6c-2.1-1.1-8.3-6.2-8.3-6.2c-2.1-3.4-4.6-0.1-4.6-0.1l-9,16.2c-2.9,6.6-11.2,2.4-11.2,2.4
	c-29.1-9.7-12.3-47.4-12.3-47.4c1.7-6.6,5.6-5.6,5.6-5.6l14.9-0.5c-0.5-4.5-6.3-14.4-6.3-14.4c-1.5-3.6-4-2.9-4-2.9l-24.9,1.6
	c-2.2,0.3-2-1.5-2-1.5c-0.5-1.6,2.1-2.8,2.1-2.8c4.9-1.9,9.2-9.6,9.2-9.6c3.2-4.3,6.9-3.3,6.9-3.3l15-0.7
	C139.1,64.4,142.3,71.4,142.3,71.4z M120.8,105.9c-3.1,0-3,4.7-3,4.7c0.4,17.9,14.3,22.4,14.3,22.4c5.3,3.2,6.3-1.2,6.3-1.2l4.3-8.2
	l-7.7-18.3L120.8,105.9z"/>
<path class="st0" d="M524.7,116.6l-14.5,2.6c0,0-2.5,0.4-2.2,1.8c0,0,0.1,1.5,1.7,1.9l1.7,1.1c0,0,3.7,1.8,0.4,6.4l-18.5,30.5
	c0,0-9.1,14.2-5.6,25.5c1.5,4.8-3.5,12.1-3.7,11.9c0,0-0.7-5.1-13.4-10.8c0,0-4.1-2.6-7.9,1l-5.2,4.3c0,0-2.5,2.5,0.3,3
	c0,0,6.7,2.3,13.9,11.3c0,0,2.8,4.6,9,4.1c0,0,11.7-0.7,19.6-15.8c1.7-1,8.9,8.8,30.1-5.9c16.9-11.8,29.9-26.3,29.6-49.1
	c0,0,0.5-6.6-5.3-5.1l-9.1,0.9c0,0-5-0.4-4.4,5.6c0,0,2,31.1-31.6,37.6c0,0-6.4,2-3.8-3.7c0,0,13.1-23,21.8-34c0,0,10.5-11.2,3.9-22
	l-1.4-2C530,117.6,529.2,115.5,524.7,116.6z"/>
<path class="st0" d="M306.9,50.1l1.1,50c0.2,5.7,4.4,3.5,4.4,3.5c3.8-0.5,4.5,0.9,4.5,0.9c1.4,2.2-1.2,3.5-1.2,3.5l-13.2,11.5
	c-4.2,4.6-7.7-2.5-7.7-2.5c-1.6-1.8-5.3-8.8-5.3-8.8c-0.7-3.9-4.2-1.8-4.2-1.8l-14.4,11.7c-5.1,5.1-11.3-2-11.3-2
	c-23.4-19.8,6.2-48.6,6.2-48.6c4-5.4,7.3-3.1,7.3-3.1l14,5.1c1.2-4.4-0.5-15.7-0.5-15.7c-0.1-3.9-2.6-4.2-2.6-4.2l-23.8-7.8
	c-2.1-0.6-1.3-2.1-1.3-2.1c0.1-1.7,3-1.8,3-1.8c5.2,0.1,12.1-5.5,12.1-5.5c4.5-2.8,7.6-0.5,7.6-0.5l14.2,5
	C306.8,40.6,306.9,50.1,306.9,50.1z M273.6,72.3c-2.9-1.1-4.5,3.3-4.5,3.3c-6.4,16.8,4.9,26.1,4.9,26.1c3.7,4.9,6.3,1.2,6.3,1.2l7-6
	L286.9,77L273.6,72.3z"/>
<path class="st0" d="M564.5,140.2c-0.1-2.9,2.1-5.3,5.1-5.4c2.9-0.1,5.3,2.1,5.4,5c0.1,2.9-2.1,5.3-5.1,5.4
	C567,145.4,564.6,143.1,564.5,140.2z M565.4,140.2c0.1,2.5,2.2,4.3,4.5,4.2c2.4-0.1,4.3-2.1,4.2-4.5c-0.1-2.5-2.1-4.3-4.5-4.2
	C567.2,135.7,565.3,137.7,565.4,140.2z M572.3,142.9l-1,0l-1.6-2.6l-1.1,0l0.1,2.7l-0.9,0l-0.2-5.9l2.5-0.1c1.1,0,2,0.2,2.1,1.5
	c0.1,1.2-0.7,1.6-1.5,1.7L572.3,142.9z M568.5,138l0.1,1.5l0.9,0c0.8,0,1.9,0.1,1.9-0.7c0-0.7-0.7-0.8-1.4-0.8L568.5,138z"/>
<path class="st0" d="M393.9,65.8l-4.3,16.5l-1.2,4.8L384,104c-2.5,7.6-0.1,8-0.1,8l10.3,7.3c2.2,1.6,2.6-2.2,2.6-2.2l13.8-42.2
	c2.1-7.5-0.3-9.7-0.3-9.7l-1.2-2.1c-2.8-3.7,0-4.2,0-4.2l11.2-4.4c4.3-2.2,5.6,1.3,5.6,1.3c8.7,11,3.8,23.5,3.8,23.5l-16,47.2
	c-1.3,5.2-5.2,3.4-5.2,3.4C397.9,129,389,134,389,134c-4.5,3.4-7.6-1.3-7.6-1.3c-0.7-0.9-12.5-9.1-12.5-9.1
	c-5.4-4.4-9.9-1.2-9.9-1.2l-5.1,2.5c-4.6,3.7-6.9-0.7-6.9-0.7c-5.3-8.8-21.3-14.4-21.3-14.4c-2.1,0-2.4-1.7-2.4-1.7
	c-0.4-1.5,1.6-2.5,1.6-2.5l2.3-2.1c2.5-2.2,2.4-4.6,2.4-4.6l6.7-51.9c2-13.8-1.2-14.2-1.2-14.2c-2.4-1.1-1.4-2.8-1.4-2.8
	c0.5-1.1,2-0.6,2-0.6c20.8,3.1,21.1,14.1,21.1,14.1L348.5,98c-1,6.9,2.2,7,2.2,7l7.6,4.9c5,3.8,5.8-4.3,5.8-4.3l10-39.1l0.3-1
	c0.9-7.6-2.9-10-2.9-10c-3.4-2.8,0.4-4.4,0.4-4.4l8.8-5.1c4.1-2.2,5.5,0.1,5.5,0.1C396.4,55.8,393.9,65.8,393.9,65.8z"/>
<path class="st0" d="M161.1,46.8l17.7,58.3c0,0,3.9,10.3,0.1,14.9c0,0-1.8,0.7-1.1,2.5c0,0,0.2,1.3,2.9,1.4c0,0,15.6,0.2,20.5,4.3
	c0,0,4.1,3.9,6.3-0.7c0,0-3.1-11.1-5.8-19l-25.9-82c0,0-2.6-6.4,1.7-13.4c0,0,2.2-2.4,0.4-3.9c0,0-1.6-1.3-4.3,0.7
	c0,0-5.1,3.4-10.5,12C162.9,21.9,157.3,33.4,161.1,46.8z"/>
<path class="st0" d="M209,33.3l9.7,62.4c0,0,2.4,10.7-2,14.8c0,0-1.9,0.5-1.5,2.3c0,0,0,1.3,2.6,1.8c0,0,16.1,1.9,20.3,6.6
	c0,0,3.5,4.5,6.3,0.3c0,0-2.1-10.9-3.7-19.1l-14.1-84.9c0,0-1.7-6.7,3.6-13c0,0,2.5-2.1,0.9-3.8c0,0-1.4-1.5-4.4,0.1
	c0,0-5.5,2.6-12.1,10.4C214.7,11.2,207.1,19.5,209,33.3z"/>
<path class="st0" d="M110.5,159.9c3.8-6.3,0.7-9.3-1.7-10.1c-8.7-3-12.2,19.8-29.8,26.8c-19.6,7.9-25,2.7-26.7-0.1
	c-3.6-6.1,6.8-19-0.5-35.3c-8.5-18.9-18.2-30.6-13.6-39.1c4.6-8.3,18-7,24.3-7.1c12.7-0.2,14.7-16.4,12.9-20.3
	c-0.8-1.9-2.9-2.2-4.8-1.4c-6.3,2.8-7.8,4.2-13.4,5c-5.6,0.9-9.1,1.3-21.6,3.9c-10.2,2.1-49.2,30.9-30.8,80.7
	c15.2,41,59.4,38.9,75.5,32.2C98,187.7,106.5,166.5,110.5,159.9z M41.9,165.8c1.3,5.3-2.5,6.1-2.5,6.1c-2.3,1.1-4.7-0.3-4.7-0.3
	c-2.6-1.2-4.5-2.7-4.5-2.7c-4.9-3.1-10.5-9.5-13.6-16.2c-9.5-19.9-1-38.1,3.1-42.8c0,0,1.5-2.3,2.8-2.9c0,0,2.3-2.4,4,0.1
	c0,0,1.1,2,0.9,4.8c0,0,0,1.9-0.2,3.1c-0.3,2.9-2.1,7-1.9,10.1c0.2,3.7,1.8,7.9,3.1,10.4c3.5,6.6,10.9,21.4,12.2,25.2
	C41.5,163.7,41.9,165.8,41.9,165.8z"/>
<path class="st0" d="M495.6,109L474,154.1c-2.4,5.2,2.3,5.1,2.3,5.1c3.6,1.2,3.6,2.9,3.6,2.9c0.3,2.6-2.7,2.5-2.7,2.5l-17,4.3
	c-5.9,2.2-5.8-5.7-5.8-5.7c-0.6-2.3-0.8-10.3-0.8-10.3c1.2-3.8-3-3.5-3-3.5l-18.2,3.9c-6.9,2.2-9.2-6.9-9.2-6.9
	c-11.9-28.2,27.5-40.5,27.5-40.5c6.1-3.1,7.9,0.5,7.9,0.5l10.2,10.9c3.1-3.4,6.6-14.3,6.6-14.3c1.7-3.5-0.4-4.8-0.4-4.8l-17.6-17.7
	c-1.6-1.5-0.2-2.5-0.2-2.5c0.9-1.5,3.4-0.3,3.4-0.3c4.7,2.5,13.3,0.6,13.3,0.6c5.3-0.4,7,3,7,3l10.4,10.9
	C499.8,100.4,495.6,109,495.6,109z M455.8,113.7c-2-2.3-5.5,0.9-5.5,0.9c-13.3,12.1-7.4,25.5-7.4,25.5c1.1,6,5,3.9,5,3.9l9-2.1
	l8.7-17.9L455.8,113.7z"/>
<path class="st0" d="M280.3,321.6c4.6,0,9.1-3.6,13.9-11.1c0,0,65.6-102.6,69.8-108.8c6.1-9-5.2-21.8-15.2-10.7
	c0,0-50.8,54.8-57.2,62.1c-4.1,4.7-7.3,7.2-11.3,7.2c-4,0-7.1-2.5-11.3-7.2c-6.4-7.4-57.2-62.1-57.2-62.1
	c-10-11.1-21.3,1.7-15.2,10.7c4.2,6.2,69.8,108.8,69.8,108.8C271.2,317.9,275.8,321.6,280.3,321.6z"/>
</svg>
